<svg width="512" height="512" viewBox="0 0 512 512" xmlns="http://www.w3.org/2000/svg" role="img" aria-labelledby="title desc">
  <title id="title">오로라 바구니 썸네일</title>
  <desc id="desc">오로라와 바구니 아이콘을 단순화한 썸네일</desc>
  <defs>
    <linearGradient id="sky" x1="0%" y1="0%" x2="100%" y2="100%">
      <stop offset="0%" stop-color="#0d1f4d"/>
      <stop offset="100%" stop-color="#1a2f73"/>
    </linearGradient>
    <linearGradient id="aurora" x1="0%" y1="0%" x2="100%" y2="100%">
      <stop offset="0%" stop-color="#57f3d0"/>
      <stop offset="50%" stop-color="#9f8fff"/>
      <stop offset="100%" stop-color="#ffd66e"/>
    </linearGradient>
  </defs>

  <rect width="512" height="512" rx="80" fill="url(#sky)"/>

  <g stroke="url(#aurora)" stroke-width="22" stroke-linecap="round" fill="none" opacity="0.85">
    <path d="M120 330 C170 260, 235 300, 265 250 C295 198, 355 180, 390 220"/>
    <path d="M80 370 C140 290, 210 340, 250 280 C300 210, 370 220, 440 170"/>
    <path d="M90 270 C150 220, 200 250, 250 200"/>
  </g>

  <rect x="150" y="330" width="212" height="74" rx="30" fill="#f5cf63" stroke="#fff7c0" stroke-width="4"/>
  <path d="M170 330 C192 286, 320 286, 342 330" fill="none" stroke="#ffd78b" stroke-width="8"/>
  <rect x="176" y="356" width="160" height="26" rx="12" fill="#101e4e"/>

  <circle cx="256" cy="292" r="14" fill="#fff3a2"/>
  <circle cx="220" cy="292" r="12" fill="#7ff2c4"/>
  <circle cx="292" cy="302" r="10" fill="#b89cff"/>
</svg>
