<svg xmlns="http://www.w3.org/2000/svg" viewBox="0 0 100 100">
  <defs>
    <linearGradient id="bg" x1="0%" y1="0%" x2="0%" y2="100%">
      <stop offset="0%" style="stop-color:#0a0a1a"/>
      <stop offset="100%" style="stop-color:#1a0a2e"/>
    </linearGradient>
  </defs>
  <rect width="100" height="100" fill="url(#bg)"/>
  <!-- Lanes -->
  <rect x="15" y="10" width="15" height="70" fill="#ef444420" stroke="#ef444450" rx="3"/>
  <rect x="32" y="10" width="15" height="70" fill="#22c55e20" stroke="#22c55e50" rx="3"/>
  <rect x="49" y="10" width="15" height="70" fill="#3b82f620" stroke="#3b82f650" rx="3"/>
  <rect x="66" y="10" width="15" height="70" fill="#a855f720" stroke="#a855f750" rx="3"/>
  <!-- Notes -->
  <rect x="17" y="20" width="11" height="8" rx="2" fill="#ef4444"/>
  <rect x="34" y="35" width="11" height="8" rx="2" fill="#22c55e"/>
  <rect x="51" y="15" width="11" height="8" rx="2" fill="#3b82f6"/>
  <rect x="68" y="45" width="11" height="8" rx="2" fill="#a855f7"/>
  <rect x="34" y="55" width="11" height="8" rx="2" fill="#22c55e"/>
  <!-- Hit zone -->
  <line x1="15" y1="70" x2="81" y2="70" stroke="#ffffff40" stroke-width="2"/>
  <!-- Keys -->
  <g transform="translate(15, 82)">
    <rect width="15" height="12" rx="3" fill="#ef444480" stroke="#ef4444"/>
    <text x="7.5" y="10" text-anchor="middle" fill="#fff" font-size="7">D</text>
  </g>
  <g transform="translate(32, 82)">
    <rect width="15" height="12" rx="3" fill="#22c55e80" stroke="#22c55e"/>
    <text x="7.5" y="10" text-anchor="middle" fill="#fff" font-size="7">F</text>
  </g>
  <g transform="translate(49, 82)">
    <rect width="15" height="12" rx="3" fill="#3b82f680" stroke="#3b82f6"/>
    <text x="7.5" y="10" text-anchor="middle" fill="#fff" font-size="7">J</text>
  </g>
  <g transform="translate(66, 82)">
    <rect width="15" height="12" rx="3" fill="#a855f780" stroke="#a855f7"/>
    <text x="7.5" y="10" text-anchor="middle" fill="#fff" font-size="7">K</text>
  </g>
</svg>