<svg xmlns="http://www.w3.org/2000/svg" width="200" height="200" viewBox="0 0 200 200">
  <rect width="200" height="200" fill="#0a0a12"/>
  <rect x="30" y="35" width="28" height="14" rx="3" fill="#f97316" opacity="0.9"/>
  <rect x="62" y="35" width="28" height="14" rx="3" fill="#f97316" opacity="0.8"/>
  <rect x="94" y="35" width="28" height="14" rx="3" fill="#f97316" opacity="0.7"/>
  <rect x="126" y="35" width="28" height="14" rx="3" fill="#f97316" opacity="0.6"/>
  <rect x="30" y="53" width="28" height="14" rx="3" fill="#f43f5e" opacity="0.9"/>
  <rect x="62" y="53" width="28" height="14" rx="3" fill="#f43f5e" opacity="0.8"/>
  <rect x="94" y="53" width="28" height="14" rx="3" fill="#f43f5e" opacity="0.7"/>
  <rect x="126" y="53" width="28" height="14" rx="3" fill="#f43f5e" opacity="0.6"/>
  <rect x="30" y="71" width="28" height="14" rx="3" fill="#eab308" opacity="0.8"/>
  <rect x="62" y="71" width="28" height="14" rx="3" fill="#eab308" opacity="0.7"/>
  <rect x="94" y="71" width="28" height="14" rx="3" fill="#22c55e" opacity="0.7"/>
  <rect x="126" y="71" width="28" height="14" rx="3" fill="#22c55e" opacity="0.6"/>
  <circle cx="100" cy="120" r="7" fill="#ffffff" opacity="0.9"/>
  <rect x="70" y="150" width="60" height="10" rx="4" fill="#f97316" opacity="0.8"/>
  <text x="100" y="185" text-anchor="middle" fill="#f97316" font-family="sans-serif" font-size="11" font-weight="300" letter-spacing="3">BREAKOUT 3D</text>
</svg>