<svg xmlns="http://www.w3.org/2000/svg" width="512" height="512" viewBox="0 0 512 512">
  <defs>
    <linearGradient id="bg" x1="0" y1="0" x2="1" y2="1">
      <stop offset="0%" stop-color="#1c1c44"/>
      <stop offset="100%" stop-color="#4f2f75"/>
    </linearGradient>
    <linearGradient id="lantern" x1="0" y1="0" x2="0" y2="1">
      <stop offset="0%" stop-color="#ffd37b"/>
      <stop offset="100%" stop-color="#ff8758"/>
    </linearGradient>
  </defs>
  <rect width="512" height="512" rx="96" fill="url(#bg)"/>
  <circle cx="112" cy="120" r="8" fill="#ffffff" opacity="0.65"/>
  <circle cx="402" cy="86" r="6" fill="#ffffff" opacity="0.55"/>
  <circle cx="388" cy="164" r="5" fill="#ffe8a8" opacity="0.85"/>
  <g transform="translate(256 278)">
    <ellipse cx="0" cy="122" rx="102" ry="22" fill="#000" opacity="0.25"/>
    <path d="M-70 -90 H70 L52 84 Q0 122 -52 84 Z" fill="url(#lantern)"/>
    <rect x="-12" y="-116" width="24" height="24" rx="4" fill="#ffd37b"/>
    <rect x="-10" y="-130" width="20" height="18" rx="3" fill="#f6f0d0"/>
    <circle cx="0" cy="4" r="15" fill="#fff3b5" opacity="0.85"/>
    <path d="M-86 -16 C-126 -32 -128 -72 -92 -86" fill="none" stroke="#8ed0ff" stroke-width="12" stroke-linecap="round" opacity="0.8"/>
    <path d="M86 -8 C126 -24 128 -64 92 -78" fill="none" stroke="#8ed0ff" stroke-width="12" stroke-linecap="round" opacity="0.7"/>
  </g>
</svg>
